<?xml version="1.0" standalone="no"?>
<!DOCTYPE svg PUBLIC "-//W3C//DTD SVG 20010904//EN"
 "http://www.w3.org/TR/2001/REC-SVG-20010904/DTD/svg10.dtd">
<svg version="1.0" xmlns="http://www.w3.org/2000/svg"
 width="300.000000pt" height="300.000000pt" viewBox="0 0 300.000000 300.000000"
 preserveAspectRatio="xMidYMid meet">
<metadata>
Created by potrace 1.10, written by Peter Selinger 2001-2011
</metadata>
<g transform="translate(0.000000,300.000000) scale(0.100000,-0.100000)"
fill="#000000" stroke="none">
<path d="M1188 2014 c-16 -8 -28 -22 -28 -30 0 -25 53 -13 65 14 14 32 39 23
43 -14 3 -30 2 -31 -44 -31 -39 0 -51 -4 -71 -27 -27 -31 -30 -68 -7 -90 19
-19 65 -21 83 -3 11 10 14 10 18 0 3 -8 22 -13 45 -13 35 0 39 2 32 18 -5 9
-8 47 -9 83 0 51 -4 72 -19 88 -23 25 -68 27 -108 5z m68 -88 c8 -20 -22 -86
-39 -86 -27 0 -30 55 -4 88 13 16 36 15 43 -2z"/>
<path d="M1356 1995 c9 -36 8 -126 -1 -155 -6 -18 -2 -20 38 -20 l44 0 -9 58
c-5 31 -7 76 -3 98 l6 42 -41 4 -41 4 7 -31z"/>
<path d="M1462 2007 c-12 -13 -24 -38 -27 -57 l-6 -35 15 38 c17 47 23 54 36
41 6 -6 5 -36 -4 -84 -8 -41 -12 -78 -10 -82 3 -4 20 -8 37 -8 l32 0 1 58 c0
59 19 112 43 120 11 4 13 -5 7 -42 -3 -25 -9 -66 -12 -91 l-7 -45 42 0 c40 0
42 1 34 23 -4 12 -6 53 -5 91 3 96 -24 123 -72 71 l-23 -25 -11 25 c-14 31
-42 32 -70 2z"/>
<path d="M1797 1990 c17 -78 -4 -150 -42 -150 -20 0 -23 20 -14 80 14 102 15
100 -36 100 -44 0 -45 -1 -34 -22 6 -12 11 -49 11 -82 -1 -74 10 -96 48 -96
42 0 60 10 73 39 l11 26 4 -29 c8 -63 -23 -102 -58 -71 -22 20 -43 19 -63 -3
-22 -24 -21 -29 3 -42 14 -8 32 -8 58 0 63 16 74 37 83 151 4 55 13 107 20
115 6 8 10 14 8 15 -2 0 -21 1 -41 2 l-38 2 7 -35z"/>
<path d="M1152 1791 c-25 -15 -9 -46 24 -49 34 -3 60 18 50 43 -6 16 -52 20
-74 6z"/>
<path d="M1255 1645 l0 -145 36 0 37 0 -2 145 -1 145 -35 0 -35 0 0 -145z"/>
<path d="M1004 1708 c-41 -10 -56 -30 -52 -65 2 -22 14 -34 56 -56 54 -29 69
-61 36 -74 -23 -9 -49 11 -47 35 3 23 -33 40 -49 24 -18 -18 -3 -47 35 -66 33
-16 45 -17 78 -7 88 26 73 115 -22 136 -36 8 -48 31 -26 52 20 20 55 10 37
-11 -16 -20 18 -39 43 -25 27 16 21 48 -10 55 -16 3 -32 7 -38 8 -5 2 -24 -1
-41 -6z"/>
<path d="M1146 1675 c9 -36 8 -126 -1 -155 -6 -18 -2 -20 32 -20 l38 0 0 103
0 102 -38 0 c-37 1 -38 0 -31 -30z"/>
<path d="M1374 1696 c-12 -8 -27 -29 -34 -46 -10 -25 -10 -35 3 -63 9 -18 20
-45 26 -60 9 -23 16 -27 51 -27 l41 0 -21 29 c-11 17 -27 46 -36 66 -13 32
-18 36 -40 31 -29 -8 -31 4 -4 35 15 19 19 20 20 8 0 -9 7 -20 16 -23 23 -9
66 21 62 42 -4 22 -57 27 -84 8z"/>
<path d="M1499 1681 c-24 -24 -29 -38 -29 -76 0 -59 13 -83 56 -101 73 -31
144 38 128 123 -15 82 -98 111 -155 54z m97 -8 c8 -31 -10 -128 -27 -149 -17
-20 -37 -17 -44 7 -11 32 5 116 27 144 25 32 36 32 44 -2z"/>
<path d="M1686 1640 c4 -36 2 -82 -4 -102 l-10 -38 41 0 42 0 0 64 c0 35 -3
59 -7 53 -11 -17 -10 11 1 50 9 31 9 31 -30 35 l-39 4 6 -66z"/>
<path d="M1784 1688 c-10 -12 -14 -18 -8 -15 7 4 14 -2 17 -13 6 -25 28 -26
57 -2 14 11 19 23 15 35 -10 24 -58 22 -81 -5z"/>
<path d="M1912 1694 c-12 -8 -22 -22 -22 -30 0 -25 53 -13 65 14 14 31 39 23
43 -13 3 -29 2 -30 -43 -30 -39 0 -51 -5 -71 -28 -28 -32 -31 -69 -8 -91 20
-21 68 -20 85 0 12 15 11 16 -7 10 -25 -8 -36 10 -27 46 6 24 31 58 43 58 14
0 19 -29 10 -59 -15 -52 -3 -71 42 -71 37 0 39 2 31 23 -4 12 -7 49 -6 83 2
49 -1 65 -18 82 -24 26 -84 30 -117 6z"/>
<path d="M1485 1453 c-9 -51 -39 -97 -72 -112 -56 -26 -119 -41 -174 -41 l-56
0 8 -46 c20 -106 81 -189 175 -235 70 -35 198 -35 268 0 94 46 155 129 175
235 l8 46 -54 0 c-59 0 -154 24 -191 48 -28 18 -48 55 -57 105 -9 47 -21 47
-30 0z m37 -91 c27 -36 71 -62 106 -62 l36 0 -55 -27 c-43 -22 -59 -37 -76
-73 -12 -25 -22 -56 -22 -70 1 -23 2 -22 8 5 16 67 44 107 85 126 47 21 112
25 118 7 3 -7 15 -13 29 -13 17 0 25 -6 27 -22 2 -13 -1 -23 -7 -23 -6 0 -11
-10 -11 -21 0 -27 -123 -149 -149 -149 -11 0 -22 -4 -26 -9 -13 -21 -96 -24
-158 -5 -51 15 -73 30 -124 81 -35 35 -63 71 -63 82 0 11 -4 23 -10 26 -16 10
-12 35 6 42 11 4 22 -1 30 -12 13 -18 14 -17 14 8 0 24 4 27 37 27 46 0 116
-33 132 -63 6 -12 18 -42 27 -67 12 -38 14 -40 9 -10 -10 66 -37 103 -94 133
l-55 27 36 0 c35 0 79 26 106 62 7 10 17 18 22 18 5 0 15 -8 22 -18z"/>
<path d="M1457 1073 c18 -2 50 -2 70 0 21 2 7 4 -32 4 -38 0 -55 -2 -38 -4z"/>
<path d="M874 1238 c32 -282 249 -510 529 -556 88 -14 106 -14 194 0 281 46
497 273 529 556 l7 62 -154 -2 c-85 0 -140 -3 -122 -5 41 -5 45 -20 28 -88
-21 -77 -39 -110 -99 -173 -92 -97 -225 -144 -348 -122 -117 22 -224 96 -283
196 -29 50 -61 163 -48 174 4 5 22 10 38 13 17 2 -39 5 -124 6 l-154 1 7 -62z
m104 30 c9 -9 12 -9 12 0 0 7 4 12 9 12 5 0 17 -34 26 -75 28 -128 80 -208
188 -292 81 -63 175 -94 281 -94 97 -1 150 12 229 53 82 44 66 43 -23 0 -74
-37 -76 -37 -200 -37 -124 0 -125 0 -203 38 -132 64 -228 184 -261 324 -15 67
-10 88 20 77 25 -10 34 -23 34 -56 0 -41 67 -164 117 -213 24 -24 78 -61 120
-82 73 -36 82 -38 172 -38 90 0 101 2 171 37 126 61 224 181 239 293 5 29 13
43 31 52 24 12 25 11 28 -21 7 -75 -56 -204 -140 -288 -22 -22 -31 -35 -21
-30 62 34 138 156 165 267 14 57 25 82 31 76 7 -7 15 -7 25 1 11 10 18 8 32
-9 10 -12 20 -19 24 -16 12 13 6 -44 -13 -109 -11 -37 -32 -91 -48 -120 -54
-100 -211 -246 -253 -235 -12 3 -17 0 -13 -8 6 -17 -136 -62 -146 -47 -3 5
-14 8 -24 6 -29 -4 -33 -14 -6 -15 13 -1 4 -5 -21 -10 -55 -10 -179 1 -140 12
23 6 21 8 -12 13 -7 1 -18 -2 -25 -7 -7 -5 -21 -3 -35 4 -13 7 -25 12 -28 11
-3 -1 -13 1 -24 4 -15 5 -16 8 -5 15 9 6 1 7 -20 2 -30 -5 -33 -4 -28 11 5 13
3 16 -11 12 -38 -13 -167 95 -235 197 -16 23 -23 43 -18 45 6 2 11 8 11 13 0
4 -6 6 -13 3 -17 -6 -51 76 -51 123 0 17 -4 29 -8 27 -4 -3 -8 10 -7 28 1 31
1 32 9 8 l8 -25 1 26 c1 23 17 49 31 49 3 0 11 -5 18 -12z"/>
</g>
</svg>
